Coordinates
version=1
nRows=10
nColumns=40
inDegrees=yes

Units are S.I. units (second, meters, Newtons, ...)
If the header above contains a line with 'inDegrees', this indicates whether rotational values are in degrees (yes) or radians (no).

endheader
time	pelvis_tilt	pelvis_list	pelvis_rotation	pelvis_tx	pelvis_ty	pelvis_tz	hip_flexion_r	hip_adduction_r	hip_rotation_r	knee_angle_r	knee_angle_r_beta	ankle_angle_r	subtalar_angle_r	mtp_angle_r	hip_flexion_l	hip_adduction_l	hip_rotation_l	knee_angle_l	knee_angle_l_beta	ankle_angle_l	subtalar_angle_l	mtp_angle_l	lumbar_extension	lumbar_bending	lumbar_rotation	arm_flex_r	arm_add_r	arm_rot_r	elbow_flex_r	pro_sup_r	wrist_flex_r	wrist_dev_r	arm_flex_l	arm_add_l	arm_rot_l	elbow_flex_l	pro_sup_l	wrist_flex_l	wrist_dev_l
      2.47500000	    -34.53666186	      5.04275702	     -7.38411843	     -0.40160693	      0.59870423	     -0.90709763	    107.77620536	    -16.86230409	     11.77376139	    106.26854013	      1.85473592	     32.87128381	      0.00000000	      0.00000000	    104.41709094	    -31.75317472	      3.37689288	    109.24438616	      1.90667423	     40.88006758	      0.00000000	      0.00000000	    -21.18315859	     -6.82020069	      4.64095596	     17.07209670	    -54.08396506	     89.53124669	     90.74788744	     88.73449356	      0.00000000	      0.00000000	     20.90367323	    -58.85980950	     89.54165905	     98.61508013	     88.52760529	      0.00000000	      0.00000000
      2.48000000	    -34.52843277	      5.05984305	     -7.35470676	     -0.40178478	      0.59870604	     -0.90706611	    107.79804359	    -16.86146469	     11.81029780	    106.27107813	      1.85478021	     32.85033005	      0.00000000	      0.00000000	    104.40341803	    -31.74407501	      3.32229987	    109.21952101	      1.90624025	     40.82986903	      0.00000000	      0.00000000	    -21.19570103	     -6.83806113	      4.62780846	     17.06395715	    -54.10011955	     89.53202040	     90.75811989	     88.71882003	      0.00000000	      0.00000000	     20.90891717	    -58.87116536	     89.54213783	     98.70750114	     88.54235984	      0.00000000	      0.00000000
      2.48500000	    -34.60593079	      5.05516781	     -7.05522126	     -0.40195425	      0.59854253	     -0.90785505	    107.92965941	    -17.20153293	     11.91564857	    106.30110755	      1.85530433	     32.85770301	      0.00000000	      0.00000000	    104.45043243	    -31.32074418	      3.26201612	    109.17256872	      1.90542078	     40.88455908	      0.00000000	      0.00000000	    -21.13903715	     -6.69515130	      4.38452816	     17.03947496	    -54.16318959	     89.53147278	     90.79064814	     88.74588350	      0.00000000	      0.00000000	     20.89189401	    -58.81668891	     89.54110683	     98.69456743	     88.48664274	      0.00000000	      0.00000000
      2.49000000	    -34.58360136	      5.01151256	     -7.13384468	     -0.40212771	      0.59864119	     -0.90743390	    107.87153356	    -17.08976946	     11.81700590	    106.30329678	      1.85534253	     32.92974627	      0.00000000	      0.00000000	    104.48123224	    -31.46862334	      3.31790338	    109.15795045	      1.90516564	     40.84671704	      0.00000000	      0.00000000	    -21.16045895	     -6.70179421	      4.50470145	     17.03168798	    -54.11366441	     89.53400166	     90.71159176	     88.72808506	      0.00000000	      0.00000000	     20.94857451	    -58.80768569	     89.54033932	     98.58849097	     88.53396647	      0.00000000	      0.00000000
      2.49500000	    -34.62656565	      4.98874346	     -7.07826882	     -0.40237399	      0.59861733	     -0.90750727	    107.90556882	    -17.13912947	     11.79246301	    106.27160944	      1.85478949	     32.87953326	      0.00000000	      0.00000000	    104.56156751	    -31.37866877	      3.36772352	    109.13735332	      1.90480615	     40.79586410	      0.00000000	      0.00000000	    -21.11933105	     -6.65259948	      4.49203501	     17.02106701	    -54.16769221	     89.52899165	     90.83792235	     88.73448488	      0.00000000	      0.00000000	     20.95100091	    -58.81895753	     89.54222753	     98.70905105	     88.52220349	      0.00000000	      0.00000000
      2.50000000	    -34.63184848	      5.00432337	     -7.06301099	     -0.40256243	      0.59865379	     -0.90747030	    107.92892666	    -17.11527337	     11.85005582	    106.26125587	      1.85460878	     32.84823212	      0.00000000	      0.00000000	    104.55325813	    -31.35474227	      3.33757783	    109.11412481	      1.90440074	     40.81620683	      0.00000000	      0.00000000	    -21.11884018	     -6.67161112	      4.49146809	     17.03134662	    -54.16406171	     89.53293767	     90.76802003	     88.74148176	      0.00000000	      0.00000000	     20.96268145	    -58.80256824	     89.54304188	     98.71164109	     88.50603670	      0.00000000	      0.00000000
      2.50500000	    -34.61468310	      5.04849434	     -7.05135404	     -0.40268471	      0.59872222	     -0.90743026	    107.95402284	    -17.11425582	     11.89235163	    106.26823451	      1.85473058	     32.79004531	      0.00000000	      0.00000000	    104.49822587	    -31.33911961	      3.27625330	    109.08674441	      1.90392286	     40.78591376	      0.00000000	      0.00000000	    -21.12627972	     -6.72163839	      4.49260274	     17.03306240	    -54.14869525	     89.53539891	     90.75602074	     88.75282598	      0.00000000	      0.00000000	     20.99545415	    -58.79770667	     89.53986372	     98.67997123	     88.50053463	      0.00000000	      0.00000000
      2.51000000	    -34.49912393	      5.14170417	     -7.62497708	     -0.40284501	      0.59895781	     -0.90567385	    107.79832074	    -16.38785241	     11.79912773	    106.20145967	      1.85356514	     32.83371930	      0.00000000	      0.00000000	    104.40657748	    -32.15360562	      3.29984160	    109.13547233	      1.90477332	     40.81495790	      0.00000000	      0.00000000	    -21.17883286	     -7.09954642	      4.99419127	     17.04072296	    -54.01882851	     89.53628712	     90.67816821	     88.69823273	      0.00000000	      0.00000000	     21.04719615	    -58.91912682	     89.54160872	     98.74898598	     88.53374502	      0.00000000	      0.00000000
      2.51500000	    -34.62232124	      4.99504907	     -7.09636940	     -0.40308867	      0.59880553	     -0.90704240	    107.92088122	    -17.00719344	     11.81582860	    106.23646492	      1.85417610	     32.81529548	      0.00000000	      0.00000000	    104.57830385	    -31.44976372	      3.33064039	    109.04992530	      1.90328025	     40.73309023	      0.00000000	      0.00000000	    -21.12427575	     -6.70050418	      4.60709687	     17.01868315	    -54.17314490	     89.53399701	     90.79565924	     88.75459295	      0.00000000	      0.00000000	     21.04197012	    -58.82422625	     89.54416472	     98.74527091	     88.46013109	      0.00000000	      0.00000000
      2.52000000	    -34.61623265	      4.98714083	     -7.22010604	     -0.40325497	      0.59895122	     -0.90653035	    107.86840136	    -16.83003583	     11.74545023	    106.19931036	      1.85352763	     32.95097137	      0.00000000	      0.00000000	    104.60333241	    -31.61347032	      3.38898872	    109.04338234	      1.90316605	     40.85986617	      0.00000000	      0.00000000	    -21.11138874	     -6.75668389	      4.74476616	     17.01767866	    -54.10863435	     89.53793957	     90.67572168	     88.71613667	      0.00000000	      0.00000000	     21.05336442	    -58.81634680	     89.54624388	     98.69021356	     88.42614242	      0.00000000	      0.00000000
